<svg width="437" height="120" viewBox="0 0 437 120" fill="none" xmlns="http://www.w3.org/2000/svg">
<path d="M420.354 101.104L254.963 101.115" stroke="#60CE80" stroke-width="10"/>
<rect width="2.98323" height="2.58669" transform="matrix(-1 0 0 1 253.471 97.2396)" fill="#60CE80"/>
<rect width="2.98323" height="2.58669" transform="matrix(-1 0 0 1 250.221 99.8265)" fill="#60CE80"/>
<rect width="2.98323" height="2.58669" transform="matrix(-1 0 0 1 246.973 97.2396)" fill="#60CE80"/>
<rect width="2.98323" height="2.58669" transform="matrix(-1 0 0 1 244.302 99.8265)" fill="#60CE80"/>
<rect width="2.88536" height="2.69378" transform="matrix(-0.881555 0.47208 0.574149 0.818751 239.979 95.8633)" fill="#60CE80"/>
<rect width="1.47722" height="1.29335" transform="matrix(-1 0 0 1 229.478 92.0664)" fill="#60CE80"/>
<rect width="1.47722" height="1.29335" transform="matrix(-1 0 0 1 232.919 90.6231)" fill="#60CE80"/>
<rect width="1.47722" height="1.29335" transform="matrix(-1 0 0 1 232.438 94.6536)" fill="#60CE80"/>
<path d="M234.436 93.835L236.034 93.2426L236.712 94.6382L235.114 95.2306L234.436 93.835Z" fill="#60CE80"/>
<rect width="1.47722" height="1.29335" transform="matrix(-1 0 0 1 233.918 98.533)" fill="#60CE80"/>
<rect width="1.35586" height="1.43034" transform="matrix(-0.607119 -0.794611 -0.86373 0.503954 230.492 89.0774)" fill="#60CE80"/>
<rect width="1.37812" height="1.40878" transform="matrix(-0.698443 0.715666 0.801816 0.597571 235.397 101.105)" fill="#60CE80"/>
<rect width="1.47722" height="1.29335" transform="matrix(-1 0 0 1 236.878 97.2396)" fill="#60CE80"/>
<rect width="2.98323" height="2.58669" transform="matrix(-1 0 0 1 254.962 99.8265)" fill="#60CE80"/>
<rect width="2.98323" height="2.58669" transform="matrix(-1 0 0 1 253.471 102.413)" fill="#60CE80"/>
<g filter="url(#filter0_d_63_603)">
<path d="M8.407 88V78.016L32.119 48.832H9.367V37.312H49.111V47.296L25.495 76.48H50.071V88H8.407ZM60.2065 72.448V52.864C60.2065 42.496 65.3905 37.312 75.7585 37.312H89.1985C99.5665 37.312 104.75 42.496 104.75 52.864V72.448C104.75 82.816 99.5665 88 89.1985 88H75.7585C65.3905 88 60.2065 82.816 60.2065 72.448ZM73.4545 73.408C73.4545 75.456 74.4785 76.48 76.5265 76.48H88.4305C90.4785 76.48 91.5025 75.456 91.5025 73.408V51.904C91.5025 49.856 90.4785 48.832 88.4305 48.832H76.5265C74.4785 48.832 73.4545 49.856 73.4545 51.904V73.408ZM117.787 88V37.312H145.819C156.187 37.312 161.371 42.496 161.371 52.864V88H148.123V51.904C148.123 49.856 147.099 48.832 145.051 48.832H131.035V88H117.787ZM174.019 72.448V52.864C174.019 42.496 179.203 37.312 189.571 37.312H202.051C212.419 37.312 217.603 42.496 217.603 52.864V67.552H187.267V73.408C187.267 75.456 188.291 76.48 190.339 76.48H215.683V83.68L209.923 88H189.571C179.203 88 174.019 82.816 174.019 72.448ZM187.267 57.376H204.355V51.904C204.355 49.856 203.331 48.832 201.283 48.832H190.339C188.291 48.832 187.267 49.856 187.267 51.904V57.376ZM326.269 72.448V52.864C326.269 42.496 331.453 37.312 341.821 37.312H354.301C364.669 37.312 369.853 42.496 369.853 52.864V67.552H339.517V73.408C339.517 75.456 340.541 76.48 342.589 76.48H367.933V83.68L362.173 88H341.821C331.453 88 326.269 82.816 326.269 72.448ZM339.517 57.376H356.605V51.904C356.605 49.856 355.581 48.832 353.533 48.832H342.589C340.541 48.832 339.517 49.856 339.517 51.904V57.376ZM382.144 72.448V52.864C382.144 42.496 387.328 37.312 397.696 37.312H412.48V16.96H425.728V88H397.696C387.328 88 382.144 82.816 382.144 72.448ZM395.392 73.408C395.392 75.456 396.416 76.48 398.464 76.48H412.48V48.832H398.464C396.416 48.832 395.392 49.856 395.392 51.904V73.408Z" fill="#071013"/>
<path d="M229.894 72.448V52.864C229.894 42.496 235.078 37.312 245.446 37.312H258.886C269.254 37.312 274.438 42.496 274.438 52.864V72.448C274.438 82.816 269.254 88 258.886 88H245.446C235.078 88 229.894 82.816 229.894 72.448ZM243.142 73.408C243.142 75.456 244.166 76.48 246.214 76.48H258.118C260.166 76.48 261.19 75.456 261.19 73.408V51.904C261.19 49.856 260.166 48.832 258.118 48.832H246.214C244.166 48.832 243.142 49.856 243.142 51.904V73.408ZM287.475 88V32.512C287.475 22.144 292.659 16.96 303.027 16.96H312.435L318.195 21.28V28.48H303.795C301.747 28.48 300.723 29.504 300.723 31.552V37.312H317.235V48.832H300.723V88H287.475Z" fill="#1DB954"/>
</g>
<defs>
<filter id="filter0_d_63_603" x="4.40723" y="16.96" width="425.32" height="79.04" filterUnits="userSpaceOnUse" color-interpolation-filters="sRGB">
<feFlood flood-opacity="0" result="BackgroundImageFix"/>
<feColorMatrix in="SourceAlpha" type="matrix" values="0 0 0 0 0 0 0 0 0 0 0 0 0 0 0 0 0 0 127 0" result="hardAlpha"/>
<feOffset dy="4"/>
<feGaussianBlur stdDeviation="2"/>
<feComposite in2="hardAlpha" operator="out"/>
<feColorMatrix type="matrix" values="0 0 0 0 0 0 0 0 0 0 0 0 0 0 0 0 0 0 0.25 0"/>
<feBlend mode="normal" in2="BackgroundImageFix" result="effect1_dropShadow_63_603"/>
<feBlend mode="normal" in="SourceGraphic" in2="effect1_dropShadow_63_603" result="shape"/>
</filter>
</defs>
</svg>
